<?xml version="1.0" encoding="iso-8859-1"?>
<!-- Generator: Adobe Illustrator 16.0.0, SVG Export Plug-In . SVG Version: 6.00 Build 0)  -->
<!DOCTYPE svg PUBLIC "-//W3C//DTD SVG 1.1//EN" "http://www.w3.org/Graphics/SVG/1.1/DTD/svg11.dtd">
<svg version="1.1" id="Capa_1" xmlns="http://www.w3.org/2000/svg" xmlns:xlink="http://www.w3.org/1999/xlink" x="0px" y="0px"
	 width="97.324px" height="97.324px" viewBox="0 0 97.324 97.324" style="enable-background:new 0 0 97.324 97.324;"
	 xml:space="preserve">
<g>
	<g>
		<path d="M76.17,21.449c-7.803-1.021-7.188,6.1-8.719,11.448c-0.799,2.797-4.264,1.256-6.268,1.079
			c-1.664-0.148-3.312-0.009-4.754,0.725c-5.978-5.064-13.704-8.125-22.148-8.125C15.349,26.576,0,41.924,0,60.857
			c0,18.934,15.35,34.281,34.281,34.281c18.931,0,34.281-15.349,34.281-34.281c0-8.524-3.119-16.315-8.269-22.312
			c0.779-0.081,1.688-0.041,2.783,0.168c2.683,0.511,5.267,0.126,7.142-1.957c1.469-1.632,1.817-3.988,2.088-6.077
			c0.375-2.903,0.309-5.336,3.862-4.872C78.951,26.171,78.916,21.808,76.17,21.449z M22.98,47.736
			c-4.586,3.271-7.322,8.581-7.322,14.204c0,2.209-1.791,4-4,4s-4-1.791-4-4c0-8.202,3.99-15.947,10.676-20.717
			c1.795-1.282,4.295-0.868,5.578,0.933C25.195,43.955,24.779,46.453,22.98,47.736z"/>
		<path d="M61.131,15.369c0.504,1.093,1.801,1.57,2.893,1.066c1.091-0.502,1.568-1.799,1.066-2.892l-4.654-10.09
			c-0.504-1.093-1.799-1.57-2.894-1.066c-0.356,0.165-0.649,0.417-0.864,0.719c-0.435,0.615-0.537,1.438-0.199,2.171L61.131,15.369z
			"/>
		<path d="M75.166,16.482c1.088,0.513,2.385,0.046,2.9-1.042L82.805,5.39c0.514-1.089,0.049-2.388-1.041-2.9
			c-0.972-0.458-2.109-0.137-2.709,0.71c-0.07,0.103-0.136,0.213-0.191,0.331l-4.74,10.051
			C73.611,14.67,74.076,15.969,75.166,16.482z"/>
		<path d="M97.252,21.11c-0.307-1.165-1.498-1.859-2.66-1.553l-10.748,2.829c-0.516,0.136-0.938,0.446-1.223,0.85
			c-0.361,0.507-0.5,1.166-0.33,1.813c0.307,1.164,1.498,1.858,2.664,1.552l10.744-2.831C96.863,23.466,97.559,22.273,97.252,21.11z
			"/>
		<path d="M92.422,41.906l-9.074-6.413c-0.983-0.694-2.344-0.461-3.037,0.521c-0.694,0.983-0.461,2.343,0.523,3.037l9.074,6.413
			c0.982,0.695,2.342,0.461,3.037-0.521C93.639,43.959,93.406,42.6,92.422,41.906z"/>
	</g>
</g>
<g>
</g>
<g>
</g>
<g>
</g>
<g>
</g>
<g>
</g>
<g>
</g>
<g>
</g>
<g>
</g>
<g>
</g>
<g>
</g>
<g>
</g>
<g>
</g>
<g>
</g>
<g>
</g>
<g>
</g>
</svg>
